<svg fill="#000000" xmlns="http://www.w3.org/2000/svg"  viewBox="0 0 50 50" width="50px" height="50px"><path d="M 9 4 C 6.2504839 4 4 6.2504839 4 9 L 4 41 C 4 43.749516 6.2504839 46 9 46 L 41 46 C 43.749516 46 46 43.749516 46 41 L 46 9 C 46 6.2504839 43.749516 4 41 4 L 9 4 z M 9 6 L 41 6 C 42.668484 6 44 7.3315161 44 9 L 44 41 C 44 42.668484 42.668484 44 41 44 L 9 44 C 7.3315161 44 6 42.668484 6 41 L 6 9 C 6 7.3315161 7.3315161 6 9 6 z M 11 13 L 11 31 L 15 31 L 15 34 L 19 34 L 19 37 L 31 37 L 31 34 L 35 34 L 35 31 L 39 31 L 39 13 L 38 13 L 11 13 z M 13 15 L 37 15 L 37 29 L 33 29 L 33 32 L 29 32 L 29 35 L 21 35 L 21 32 L 17 32 L 17 29 L 13 29 L 13 15 z M 15 17 L 15 24 L 17 24 L 17 17 L 15 17 z M 18 17 L 18 24 L 20 24 L 20 17 L 18 17 z M 21 17 L 21 24 L 23 24 L 23 17 L 21 17 z M 24 17 L 24 24 L 26 24 L 26 17 L 24 17 z M 27 17 L 27 24 L 29 24 L 29 17 L 27 17 z M 30 17 L 30 24 L 32 24 L 32 17 L 30 17 z M 33 17 L 33 24 L 35 24 L 35 17 L 33 17 z"/></svg>